<?xml version="1.0" encoding="UTF-8"?>
<svg xmlns="http://www.w3.org/2000/svg" viewBox="0 0 200 200" width="200" height="200">
  <path d="M 0.0,178.95 L 1.0,178.93 L 2.0,178.91 L 3.0,178.89 L 4.0,178.86 L 5.0,178.84 L 6.0,178.81 L 7.0,178.79 L 8.0,178.76 L 9.0,178.73 L 10.0,178.71 L 11.0,178.68 L 12.0,178.65 L 13.0,178.62 L 14.0,178.58 L 15.0,178.55 L 16.0,178.52 L 17.0,178.48 L 18.0,178.44 L 19.0,178.41 L 20.0,178.37 L 21.0,178.33 L 22.0,178.28 L 23.0,178.24 L 24.0,178.19 L 25.0,178.14 L 26.0,178.09 L 27.0,178.04 L 28.0,177.99 L 29.0,177.93 L 30.0,177.87 L 31.0,177.81 L 32.0,177.75 L 33.0,177.68 L 34.0,177.61 L 35.0,177.54 L 36.0,177.46 L 37.0,177.38 L 38.0,177.3 L 39.0,177.21 L 40.0,177.12 L 41.0,177.02 L 42.0,176.92 L 43.0,176.81 L 44.0,176.7 L 45.0,176.58 L 46.0,176.46 L 47.0,176.32 L 48.0,176.18 L 49.0,176.04 L 50.0,175.88 L 51.0,175.72 L 52.0,175.54 L 53.0,175.35 L 54.0,175.16 L 55.0,174.94 L 56.0,174.72 L 57.0,174.48 L 58.0,174.22 L 59.0,173.95 L 60.0,173.65 L 61.0,173.34 L 62.0,173.0 L 63.0,172.63 L 64.0,172.24 L 65.0,171.81 L 66.0,171.34 L 67.0,170.84 L 68.0,170.29 L 69.0,169.7 L 70.0,169.05 L 71.0,168.33 L 72.0,167.55 L 73.0,166.68 L 74.0,165.73 L 75.0,164.67 L 76.0,163.5 L 77.0,162.19 L 78.0,160.73 L 79.0,159.09 L 80.0,157.24 L 81.0,155.15 L 82.0,152.78 L 83.0,150.08 L 84.0,147.0 L 85.0,143.46 L 86.0,139.38 L 87.0,134.68 L 88.0,129.23 L 89.0,122.92 L 90.0,115.61 L 91.0,107.17 L 92.0,97.5 L 93.0,86.55 L 94.0,74.4 L 95.0,61.35 L 96.0,48.0 L 97.0,35.34 L 98.0,24.71 L 99.0,17.54 L 100.0,15.0 L 101.0,17.54 L 102.0,24.71 L 103.0,35.34 L 104.0,48.0 L 105.0,61.35 L 106.0,74.4 L 107.0,86.55 L 108.0,97.5 L 109.0,107.17 L 110.0,115.61 L 111.0,122.92 L 112.0,129.23 L 113.0,134.68 L 114.0,139.38 L 115.0,143.46 L 116.0,147.0 L 117.0,150.08 L 118.0,152.78 L 119.0,155.15 L 120.0,157.24 L 121.0,159.09 L 122.0,160.73 L 123.0,162.19 L 124.0,163.5 L 125.0,164.67 L 126.0,165.73 L 127.0,166.68 L 128.0,167.55 L 129.0,168.33 L 130.0,169.05 L 131.0,169.7 L 132.0,170.29 L 133.0,170.84 L 134.0,171.34 L 135.0,171.81 L 136.0,172.24 L 137.0,172.63 L 138.0,173.0 L 139.0,173.34 L 140.0,173.65 L 141.0,173.95 L 142.0,174.22 L 143.0,174.48 L 144.0,174.72 L 145.0,174.94 L 146.0,175.16 L 147.0,175.35 L 148.0,175.54 L 149.0,175.72 L 150.0,175.88 L 151.0,176.04 L 152.0,176.18 L 153.0,176.32 L 154.0,176.46 L 155.0,176.58 L 156.0,176.7 L 157.0,176.81 L 158.0,176.92 L 159.0,177.02 L 160.0,177.12 L 161.0,177.21 L 162.0,177.3 L 163.0,177.38 L 164.0,177.46 L 165.0,177.54 L 166.0,177.61 L 167.0,177.68 L 168.0,177.75 L 169.0,177.81 L 170.0,177.87 L 171.0,177.93 L 172.0,177.99 L 173.0,178.04 L 174.0,178.09 L 175.0,178.14 L 176.0,178.19 L 177.0,178.24 L 178.0,178.28 L 179.0,178.33 L 180.0,178.37 L 181.0,178.41 L 182.0,178.44 L 183.0,178.48 L 184.0,178.52 L 185.0,178.55 L 186.0,178.58 L 187.0,178.62 L 188.0,178.65 L 189.0,178.68 L 190.0,178.71 L 191.0,178.73 L 192.0,178.76 L 193.0,178.79 L 194.0,178.81 L 195.0,178.84 L 196.0,178.86 L 197.0,178.89 L 198.0,178.91 L 199.0,178.93 L 200.0,178.95" stroke="#000000" stroke-width="2" fill="none" stroke-linecap="round" stroke-linejoin="round"/>
  <path d="M 0.0,176.51 L 1.0,176.44 L 2.0,176.37 L 3.0,176.29 L 4.0,176.22 L 5.0,176.14 L 6.0,176.06 L 7.0,175.98 L 8.0,175.89 L 9.0,175.8 L 10.0,175.71 L 11.0,175.62 L 12.0,175.52 L 13.0,175.42 L 14.0,175.32 L 15.0,175.21 L 16.0,175.1 L 17.0,174.98 L 18.0,174.87 L 19.0,174.74 L 20.0,174.62 L 21.0,174.48 L 22.0,174.35 L 23.0,174.21 L 24.0,174.06 L 25.0,173.91 L 26.0,173.75 L 27.0,173.58 L 28.0,173.41 L 29.0,173.23 L 30.0,173.05 L 31.0,172.86 L 32.0,172.66 L 33.0,172.45 L 34.0,172.23 L 35.0,172.0 L 36.0,171.76 L 37.0,171.52 L 38.0,171.26 L 39.0,170.99 L 40.0,170.71 L 41.0,170.41 L 42.0,170.1 L 43.0,169.77 L 44.0,169.43 L 45.0,169.08 L 46.0,168.7 L 47.0,168.31 L 48.0,167.89 L 49.0,167.46 L 50.0,167.0 L 51.0,166.51 L 52.0,166.0 L 53.0,165.46 L 54.0,164.89 L 55.0,164.29 L 56.0,163.65 L 57.0,162.97 L 58.0,162.26 L 59.0,161.5 L 60.0,160.69 L 61.0,159.83 L 62.0,158.92 L 63.0,157.94 L 64.0,156.91 L 65.0,155.8 L 66.0,154.62 L 67.0,153.35 L 68.0,152.0 L 69.0,150.55 L 70.0,149.0 L 71.0,147.33 L 72.0,145.54 L 73.0,143.61 L 74.0,141.55 L 75.0,139.32 L 76.0,136.92 L 77.0,134.34 L 78.0,131.57 L 79.0,128.58 L 80.0,125.37 L 81.0,121.91 L 82.0,118.21 L 83.0,114.24 L 84.0,110.0 L 85.0,105.49 L 86.0,100.71 L 87.0,95.67 L 88.0,90.4 L 89.0,84.93 L 90.0,79.33 L 91.0,73.65 L 92.0,68.0 L 93.0,62.49 L 94.0,57.26 L 95.0,52.46 L 96.0,48.24 L 97.0,44.75 L 98.0,42.15 L 99.0,40.54 L 100.0,40.0 L 101.0,40.54 L 102.0,42.15 L 103.0,44.75 L 104.0,48.24 L 105.0,52.46 L 106.0,57.26 L 107.0,62.49 L 108.0,68.0 L 109.0,73.65 L 110.0,79.33 L 111.0,84.93 L 112.0,90.4 L 113.0,95.67 L 114.0,100.71 L 115.0,105.49 L 116.0,110.0 L 117.0,114.24 L 118.0,118.21 L 119.0,121.91 L 120.0,125.37 L 121.0,128.58 L 122.0,131.57 L 123.0,134.34 L 124.0,136.92 L 125.0,139.32 L 126.0,141.55 L 127.0,143.61 L 128.0,145.54 L 129.0,147.33 L 130.0,149.0 L 131.0,150.55 L 132.0,152.0 L 133.0,153.35 L 134.0,154.62 L 135.0,155.8 L 136.0,156.91 L 137.0,157.94 L 138.0,158.92 L 139.0,159.83 L 140.0,160.69 L 141.0,161.5 L 142.0,162.26 L 143.0,162.97 L 144.0,163.65 L 145.0,164.29 L 146.0,164.89 L 147.0,165.46 L 148.0,166.0 L 149.0,166.51 L 150.0,167.0 L 151.0,167.46 L 152.0,167.89 L 153.0,168.31 L 154.0,168.7 L 155.0,169.08 L 156.0,169.43 L 157.0,169.77 L 158.0,170.1 L 159.0,170.41 L 160.0,170.71 L 161.0,170.99 L 162.0,171.26 L 163.0,171.52 L 164.0,171.76 L 165.0,172.0 L 166.0,172.23 L 167.0,172.45 L 168.0,172.66 L 169.0,172.86 L 170.0,173.05 L 171.0,173.23 L 172.0,173.41 L 173.0,173.58 L 174.0,173.75 L 175.0,173.91 L 176.0,174.06 L 177.0,174.21 L 178.0,174.35 L 179.0,174.48 L 180.0,174.62 L 181.0,174.74 L 182.0,174.87 L 183.0,174.98 L 184.0,175.1 L 185.0,175.21 L 186.0,175.32 L 187.0,175.42 L 188.0,175.52 L 189.0,175.62 L 190.0,175.71 L 191.0,175.8 L 192.0,175.89 L 193.0,175.98 L 194.0,176.06 L 195.0,176.14 L 196.0,176.22 L 197.0,176.29 L 198.0,176.37 L 199.0,176.44 L 200.0,176.51" stroke="#000000" stroke-width="2" fill="none" stroke-linecap="round" stroke-linejoin="round"/>
  <path d="M 0.0,172.37 L 1.0,172.22 L 2.0,172.08 L 3.0,171.92 L 4.0,171.77 L 5.0,171.61 L 6.0,171.44 L 7.0,171.27 L 8.0,171.1 L 9.0,170.92 L 10.0,170.73 L 11.0,170.54 L 12.0,170.35 L 13.0,170.14 L 14.0,169.94 L 15.0,169.72 L 16.0,169.5 L 17.0,169.27 L 18.0,169.04 L 19.0,168.79 L 20.0,168.54 L 21.0,168.28 L 22.0,168.01 L 23.0,167.74 L 24.0,167.45 L 25.0,167.16 L 26.0,166.85 L 27.0,166.53 L 28.0,166.21 L 29.0,165.87 L 30.0,165.52 L 31.0,165.15 L 32.0,164.78 L 33.0,164.39 L 34.0,163.98 L 35.0,163.57 L 36.0,163.13 L 37.0,162.68 L 38.0,162.21 L 39.0,161.73 L 40.0,161.22 L 41.0,160.7 L 42.0,160.15 L 43.0,159.59 L 44.0,159.0 L 45.0,158.39 L 46.0,157.75 L 47.0,157.09 L 48.0,156.4 L 49.0,155.68 L 50.0,154.93 L 51.0,154.15 L 52.0,153.34 L 53.0,152.5 L 54.0,151.61 L 55.0,150.69 L 56.0,149.74 L 57.0,148.74 L 58.0,147.69 L 59.0,146.6 L 60.0,145.47 L 61.0,144.29 L 62.0,143.05 L 63.0,141.76 L 64.0,140.42 L 65.0,139.02 L 66.0,137.57 L 67.0,136.05 L 68.0,134.47 L 69.0,132.83 L 70.0,131.12 L 71.0,129.34 L 72.0,127.5 L 73.0,125.59 L 74.0,123.62 L 75.0,121.58 L 76.0,119.47 L 77.0,117.3 L 78.0,115.08 L 79.0,112.8 L 80.0,110.47 L 81.0,108.1 L 82.0,105.7 L 83.0,103.28 L 84.0,100.85 L 85.0,98.41 L 86.0,96.0 L 87.0,93.62 L 88.0,91.29 L 89.0,89.04 L 90.0,86.88 L 91.0,84.83 L 92.0,82.92 L 93.0,81.18 L 94.0,79.61 L 95.0,78.24 L 96.0,77.1 L 97.0,76.19 L 98.0,75.53 L 99.0,75.13 L 100.0,75.0 L 101.0,75.13 L 102.0,75.53 L 103.0,76.19 L 104.0,77.1 L 105.0,78.24 L 106.0,79.61 L 107.0,81.18 L 108.0,82.92 L 109.0,84.83 L 110.0,86.88 L 111.0,89.04 L 112.0,91.29 L 113.0,93.62 L 114.0,96.0 L 115.0,98.41 L 116.0,100.85 L 117.0,103.28 L 118.0,105.7 L 119.0,108.1 L 120.0,110.47 L 121.0,112.8 L 122.0,115.08 L 123.0,117.3 L 124.0,119.47 L 125.0,121.58 L 126.0,123.62 L 127.0,125.59 L 128.0,127.5 L 129.0,129.34 L 130.0,131.12 L 131.0,132.83 L 132.0,134.47 L 133.0,136.05 L 134.0,137.57 L 135.0,139.02 L 136.0,140.42 L 137.0,141.76 L 138.0,143.05 L 139.0,144.29 L 140.0,145.47 L 141.0,146.6 L 142.0,147.69 L 143.0,148.74 L 144.0,149.74 L 145.0,150.69 L 146.0,151.61 L 147.0,152.5 L 148.0,153.34 L 149.0,154.15 L 150.0,154.93 L 151.0,155.68 L 152.0,156.4 L 153.0,157.09 L 154.0,157.75 L 155.0,158.39 L 156.0,159.0 L 157.0,159.59 L 158.0,160.15 L 159.0,160.7 L 160.0,161.22 L 161.0,161.73 L 162.0,162.21 L 163.0,162.68 L 164.0,163.13 L 165.0,163.57 L 166.0,163.98 L 167.0,164.39 L 168.0,164.78 L 169.0,165.15 L 170.0,165.52 L 171.0,165.87 L 172.0,166.21 L 173.0,166.53 L 174.0,166.85 L 175.0,167.16 L 176.0,167.45 L 177.0,167.74 L 178.0,168.01 L 179.0,168.28 L 180.0,168.54 L 181.0,168.79 L 182.0,169.04 L 183.0,169.27 L 184.0,169.5 L 185.0,169.72 L 186.0,169.94 L 187.0,170.14 L 188.0,170.35 L 189.0,170.54 L 190.0,170.73 L 191.0,170.92 L 192.0,171.1 L 193.0,171.27 L 194.0,171.44 L 195.0,171.61 L 196.0,171.77 L 197.0,171.92 L 198.0,172.08 L 199.0,172.22 L 200.0,172.37" stroke="#000000" stroke-width="2" fill="none" stroke-linecap="round" stroke-linejoin="round"/>
  <path d="M 0.0,169.05 L 1.0,168.87 L 2.0,168.68 L 3.0,168.49 L 4.0,168.29 L 5.0,168.09 L 6.0,167.88 L 7.0,167.67 L 8.0,167.45 L 9.0,167.23 L 10.0,167.0 L 11.0,166.77 L 12.0,166.53 L 13.0,166.28 L 14.0,166.03 L 15.0,165.77 L 16.0,165.51 L 17.0,165.23 L 18.0,164.96 L 19.0,164.67 L 20.0,164.38 L 21.0,164.08 L 22.0,163.77 L 23.0,163.45 L 24.0,163.13 L 25.0,162.79 L 26.0,162.45 L 27.0,162.1 L 28.0,161.74 L 29.0,161.37 L 30.0,160.99 L 31.0,160.6 L 32.0,160.2 L 33.0,159.79 L 34.0,159.37 L 35.0,158.94 L 36.0,158.5 L 37.0,158.04 L 38.0,157.57 L 39.0,157.09 L 40.0,156.6 L 41.0,156.09 L 42.0,155.58 L 43.0,155.04 L 44.0,154.5 L 45.0,153.94 L 46.0,153.36 L 47.0,152.77 L 48.0,152.17 L 49.0,151.55 L 50.0,150.91 L 51.0,150.26 L 52.0,149.59 L 53.0,148.91 L 54.0,148.21 L 55.0,147.5 L 56.0,146.77 L 57.0,146.02 L 58.0,145.26 L 59.0,144.48 L 60.0,143.69 L 61.0,142.88 L 62.0,142.06 L 63.0,141.22 L 64.0,140.37 L 65.0,139.5 L 66.0,138.62 L 67.0,137.73 L 68.0,136.83 L 69.0,135.92 L 70.0,135.0 L 71.0,134.07 L 72.0,133.14 L 73.0,132.21 L 74.0,131.27 L 75.0,130.33 L 76.0,129.39 L 77.0,128.46 L 78.0,127.54 L 79.0,126.62 L 80.0,125.72 L 81.0,124.83 L 82.0,123.97 L 83.0,123.12 L 84.0,122.3 L 85.0,121.5 L 86.0,120.74 L 87.0,120.01 L 88.0,119.32 L 89.0,118.66 L 90.0,118.06 L 91.0,117.5 L 92.0,116.99 L 93.0,116.54 L 94.0,116.14 L 95.0,115.79 L 96.0,115.51 L 97.0,115.29 L 98.0,115.13 L 99.0,115.03 L 100.0,115.0 L 101.0,115.03 L 102.0,115.13 L 103.0,115.29 L 104.0,115.51 L 105.0,115.79 L 106.0,116.14 L 107.0,116.54 L 108.0,116.99 L 109.0,117.5 L 110.0,118.06 L 111.0,118.66 L 112.0,119.32 L 113.0,120.01 L 114.0,120.74 L 115.0,121.5 L 116.0,122.3 L 117.0,123.12 L 118.0,123.97 L 119.0,124.83 L 120.0,125.72 L 121.0,126.62 L 122.0,127.54 L 123.0,128.46 L 124.0,129.39 L 125.0,130.33 L 126.0,131.27 L 127.0,132.21 L 128.0,133.14 L 129.0,134.07 L 130.0,135.0 L 131.0,135.92 L 132.0,136.83 L 133.0,137.73 L 134.0,138.62 L 135.0,139.5 L 136.0,140.37 L 137.0,141.22 L 138.0,142.06 L 139.0,142.88 L 140.0,143.69 L 141.0,144.48 L 142.0,145.26 L 143.0,146.02 L 144.0,146.77 L 145.0,147.5 L 146.0,148.21 L 147.0,148.91 L 148.0,149.59 L 149.0,150.26 L 150.0,150.91 L 151.0,151.55 L 152.0,152.17 L 153.0,152.77 L 154.0,153.36 L 155.0,153.94 L 156.0,154.5 L 157.0,155.04 L 158.0,155.58 L 159.0,156.09 L 160.0,156.6 L 161.0,157.09 L 162.0,157.57 L 163.0,158.04 L 164.0,158.5 L 165.0,158.94 L 166.0,159.37 L 167.0,159.79 L 168.0,160.2 L 169.0,160.6 L 170.0,160.99 L 171.0,161.37 L 172.0,161.74 L 173.0,162.1 L 174.0,162.45 L 175.0,162.79 L 176.0,163.13 L 177.0,163.45 L 178.0,163.77 L 179.0,164.08 L 180.0,164.38 L 181.0,164.67 L 182.0,164.96 L 183.0,165.23 L 184.0,165.51 L 185.0,165.77 L 186.0,166.03 L 187.0,166.28 L 188.0,166.53 L 189.0,166.77 L 190.0,167.0 L 191.0,167.23 L 192.0,167.45 L 193.0,167.67 L 194.0,167.88 L 195.0,168.09 L 196.0,168.29 L 197.0,168.49 L 198.0,168.68 L 199.0,168.87 L 200.0,169.05" stroke="#000000" stroke-width="2" fill="none" stroke-linecap="round" stroke-linejoin="round"/>
</svg>
