<?xml version="1.0" encoding="UTF-8" standalone="no"?>
<svg
   viewBox="0 0 250.44438 250.44438"
   width="250.44438"
   height="250.44438"
   version="1.1"
   id="svg4"
   sodipodi:docname="reasonance-logo_2.svg"
   inkscape:version="1.4.3 (0d15f75042, 2025-12-25)"
   xml:space="preserve"
   inkscape:export-filename="reasonance-logo_2.png"
   inkscape:export-xdpi="600"
   inkscape:export-ydpi="600"
   xmlns:inkscape="http://www.inkscape.org/namespaces/inkscape"
   xmlns:sodipodi="http://sodipodi.sourceforge.net/DTD/sodipodi-0.dtd"
   xmlns="http://www.w3.org/2000/svg"
   xmlns:svg="http://www.w3.org/2000/svg"><defs
     id="defs4" /><sodipodi:namedview
     id="namedview4"
     pagecolor="#ffffff"
     bordercolor="#000000"
     borderopacity="0.25"
     inkscape:showpageshadow="2"
     inkscape:pageopacity="0.0"
     inkscape:pagecheckerboard="0"
     inkscape:deskcolor="#d1d1d1"
     inkscape:zoom="2.8001429"
     inkscape:cx="62.318248"
     inkscape:cy="146.77822"
     inkscape:window-width="1829"
     inkscape:window-height="1001"
     inkscape:window-x="0"
     inkscape:window-y="0"
     inkscape:window-maximized="1"
     inkscape:current-layer="svg4" /><rect
     style="fill:none;fill-opacity:1;stroke:none;stroke-width:0.1;stroke-dasharray:none"
     id="rect4"
     width="250.34438"
     height="250.34438"
     x="0.050003052"
     y="0.050003052" /><g
     id="g4"
     transform="translate(25.222188,12.197184)"
     style="stroke:#000000;fill:none"><g
       id="g1"
       transform="translate(0,-40.49743)"><path
         d="m 0,235.4972 1,-0.02 1,-0.02 1,-0.02 1,-0.03 1,-0.02 1,-0.03 1,-0.02 1,-0.03 1,-0.03 1,-0.02 1,-0.03 1,-0.03 1,-0.03 1,-0.04 1,-0.03 1,-0.03 1,-0.04 1,-0.04 1,-0.03 1,-0.04 1,-0.04 1,-0.05 1,-0.04 1,-0.05 1,-0.05 1,-0.05 1,-0.05 1,-0.05 1,-0.06 1,-0.06 1,-0.06 1,-0.06 1,-0.07 1,-0.07 1,-0.07 1,-0.08 1,-0.08 1,-0.08 1,-0.09 1,-0.09 1,-0.1 1,-0.1 1,-0.11 1,-0.11 1,-0.12 1,-0.12 1,-0.14 1,-0.14 1,-0.14 1,-0.16 1,-0.16 1,-0.18 1,-0.19 1,-0.19 1,-0.22 1,-0.22 1,-0.24 1,-0.26 1,-0.27 1,-0.3 1,-0.31 1,-0.34 1,-0.37 1,-0.39 1,-0.43 1,-0.47 1,-0.5 1,-0.55 1,-0.59 1,-0.65 1,-0.72 1,-0.78 1,-0.87 1,-0.95 1,-1.06 1,-1.17 1,-1.31 1,-1.46 1,-1.64 1,-1.85 1,-2.09 1,-2.37 1,-2.7 1,-3.08 1,-3.54 1,-4.08 1,-4.7 1,-5.45 1,-6.31 1,-7.31 1,-8.44 1,-9.67 1,-10.95 1,-12.15 1,-13.05 1,-13.35 1,-12.660002 1,-10.63 1,-7.17 1,-2.54 1,2.54 1,7.17 1,10.63 1,12.660002 1,13.35 1,13.05 1,12.15 1,10.95 1,9.67 1,8.44 1,7.31 1,6.31 1,5.45 1,4.7 1,4.08 1,3.54 1,3.08 1,2.7 1,2.37 1,2.09 1,1.85 1,1.64 1,1.46 1,1.31 1,1.17 1,1.06 1,0.95 1,0.87 1,0.78 1,0.72 1,0.65 1,0.59 1,0.55 1,0.5 1,0.47 1,0.43 1,0.39 1,0.37 1,0.34 1,0.31 1,0.3 1,0.27 1,0.26 1,0.24 1,0.22 1,0.22 1,0.19 1,0.19 1,0.18 1,0.16 1,0.16 1,0.14 1,0.14 1,0.14 1,0.12 1,0.12 1,0.11 1,0.11 1,0.1 1,0.1 1,0.09 1,0.09 1,0.08 1,0.08 1,0.08 1,0.07 1,0.07 1,0.07 1,0.06 1,0.06 1,0.06 1,0.06 1,0.05 1,0.05 1,0.05 1,0.05 1,0.05 1,0.04 1,0.05 1,0.04 1,0.04 1,0.03 1,0.04 1,0.04 1,0.03 1,0.03 1,0.04 1,0.03 1,0.03 1,0.03 1,0.02 1,0.03 1,0.03 1,0.02 1,0.03 1,0.02 1,0.03 1,0.02 1,0.02 1,0.02"
         stroke="#000000"
         stroke-width="2"
         fill="none"
         stroke-linecap="round"
         stroke-linejoin="round"
         id="path1"
         style="fill:none;fill-opacity:1;stroke:#000000;stroke-width:5.5;stroke-dasharray:none;stroke-opacity:1" /><path
         d="m 0,235.4972 1,-0.15 1,-0.14 1,-0.16 1,-0.15 1,-0.16 1,-0.17 1,-0.17 1,-0.17 1,-0.18 1,-0.19 1,-0.19 1,-0.19 1,-0.21 1,-0.2 1,-0.22 1,-0.22 1,-0.23 1,-0.23 1,-0.25 1,-0.25 1,-0.26 1,-0.27 1,-0.27 1,-0.29 1,-0.29 1,-0.31 1,-0.32 1,-0.32 1,-0.34 1,-0.35 1,-0.37 1,-0.37 1,-0.39 1,-0.41 1,-0.41 1,-0.44 1,-0.45 1,-0.47 1,-0.48 1,-0.51 1,-0.52 1,-0.55 1,-0.56 1,-0.59 1,-0.61 1,-0.64 1,-0.66 1,-0.69 1,-0.72 1,-0.75 1,-0.78 1,-0.81 1,-0.84 1,-0.89 1,-0.92 1,-0.95 1,-1 1,-1.05 1,-1.09 1,-1.13 1,-1.18 1,-1.24 1,-1.29 1,-1.34 1,-1.4 1,-1.45 1,-1.52 1,-1.58 1,-1.64 1,-1.71 1,-1.78 1,-1.84 1,-1.91 1,-1.97 1,-2.04 1,-2.11 1,-2.17 1,-2.22 1,-2.28 1,-2.33 1,-2.37 1,-2.4 1,-2.42 1,-2.43 1,-2.44 1,-2.41 1,-2.38 1,-2.33 1,-2.25 1,-2.16 1,-2.05 1,-1.91 1,-1.74 1,-1.57 1,-1.37 1,-1.14 1,-0.91 1,-0.66 1,-0.4 1,-0.13 1,0.13 1,0.4 1,0.66 1,0.91 1,1.14 1,1.37 1,1.57 1,1.74 1,1.91 1,2.05 1,2.16 1,2.25 1,2.33 1,2.38 1,2.41 1,2.44 1,2.43 1,2.42 1,2.4 1,2.37 1,2.33 1,2.28 1,2.22 1,2.17 1,2.11 1,2.04 1,1.97 1,1.91 1,1.84 1,1.78 1,1.71 1,1.64 1,1.58 1,1.52 1,1.45 1,1.4 1,1.34 1,1.29 1,1.24 1,1.18 1,1.13 1,1.09 1,1.05 1,1 1,0.95 1,0.92 1,0.89 1,0.84 1,0.81 1,0.78 1,0.75 1,0.72 1,0.69 1,0.66 1,0.64 1,0.61 1,0.59 1,0.56 1,0.55 1,0.52 1,0.51 1,0.48 1,0.47 1,0.45 1,0.44 1,0.41 1,0.41 1,0.39 1,0.37 1,0.37 1,0.35 1,0.34 1,0.32 1,0.32 1,0.31 1,0.29 1,0.29 1,0.27 1,0.27 1,0.26 1,0.25 1,0.25 1,0.23 1,0.23 1,0.22 1,0.22 1,0.2 1,0.21 1,0.19 1,0.19 1,0.19 1,0.18 1,0.17 1,0.17 1,0.17 1,0.16 1,0.15 1,0.16 1,0.14 1,0.15"
         stroke="#000000"
         stroke-width="2"
         fill="none"
         stroke-linecap="round"
         stroke-linejoin="round"
         id="path3"
         style="fill:none;fill-opacity:1;stroke:#000000;stroke-width:5.5;stroke-dasharray:none;stroke-opacity:1" /><path
         d="m 0,235.4972 1,-0.18 1,-0.19 1,-0.19 1,-0.2 1,-0.2 1,-0.21 1,-0.21 1,-0.22 1,-0.22 1,-0.23 1,-0.23 1,-0.24 1,-0.25 1,-0.25 1,-0.26 1,-0.26 1,-0.28 1,-0.27 1,-0.29 1,-0.29 1,-0.3 1,-0.31 1,-0.32 1,-0.32 1,-0.34 1,-0.34 1,-0.35 1,-0.36 1,-0.37 1,-0.38 1,-0.39 1,-0.4 1,-0.41 1,-0.42 1,-0.43 1,-0.44 1,-0.46 1,-0.47 1,-0.48 1,-0.49 1,-0.51 1,-0.51 1,-0.54 1,-0.54 1,-0.56 1,-0.58 1,-0.59 1,-0.6 1,-0.62 1,-0.64 1,-0.65 1,-0.67 1,-0.68 1,-0.7 1,-0.71 1,-0.73 1,-0.75 1,-0.76 1,-0.78 1,-0.79 1,-0.81 1,-0.82 1,-0.84 1,-0.85 1,-0.87 1,-0.88 1,-0.89 1,-0.9 1,-0.91 1,-0.92 1,-0.93 1,-0.93 1,-0.93 1,-0.94 1,-0.94 1,-0.94 1,-0.93 1,-0.92 1,-0.92 1,-0.9 1,-0.89 1,-0.86 1,-0.85 1,-0.82 1,-0.8 1,-0.76 1,-0.73 1,-0.69 1,-0.66 1,-0.6 1,-0.56 1,-0.51 1,-0.45 1,-0.4 1,-0.35 1,-0.28 1,-0.22 1,-0.16 1,-0.1 1,-0.03 1,0.03 1,0.1 1,0.16 1,0.22 1,0.28 1,0.35 1,0.4 1,0.45 1,0.51 1,0.56 1,0.6 1,0.66 1,0.69 1,0.73 1,0.76 1,0.8 1,0.82 1,0.85 1,0.86 1,0.89 1,0.9 1,0.92 1,0.92 1,0.93 1,0.94 1,0.94 1,0.94 1,0.93 1,0.93 1,0.93 1,0.92 1,0.91 1,0.9 1,0.89 1,0.88 1,0.87 1,0.85 1,0.84 1,0.82 1,0.81 1,0.79 1,0.78 1,0.76 1,0.75 1,0.73 1,0.71 1,0.7 1,0.68 1,0.67 1,0.65 1,0.64 1,0.62 1,0.6 1,0.59 1,0.58 1,0.56 1,0.54 1,0.54 1,0.51 1,0.51 1,0.49 1,0.48 1,0.47 1,0.46 1,0.44 1,0.43 1,0.42 1,0.41 1,0.4 1,0.39 1,0.38 1,0.37 1,0.36 1,0.35 1,0.34 1,0.34 1,0.32 1,0.32 1,0.31 1,0.3 1,0.29 1,0.29 1,0.27 1,0.28 1,0.26 1,0.26 1,0.25 1,0.25 1,0.24 1,0.23 1,0.23 1,0.22 1,0.22 1,0.21 1,0.21 1,0.2 1,0.2 1,0.19 1,0.19 1,0.18"
         stroke="#000000"
         stroke-width="2"
         fill="none"
         stroke-linecap="round"
         stroke-linejoin="round"
         id="path4"
         style="fill:none;fill-opacity:1;stroke:#000000;stroke-width:5.5;stroke-dasharray:none;stroke-opacity:1" /></g></g></svg>
